<svg width="18" height="18" viewBox="0 0 18 18" fill="none" xmlns="http://www.w3.org/2000/svg">
<path d="M8.99984 8.1665C10.1049 8.1665 11.1647 8.60549 11.9461 9.38689C12.7275 10.1683 13.1665 11.2281 13.1665 12.3332V17.3332H4.83317V12.3332C4.83317 11.2281 5.27216 10.1683 6.05356 9.38689C6.83496 8.60549 7.89477 8.1665 8.99984 8.1665ZM3.4065 10.6715C3.27389 11.1188 3.19554 11.5805 3.17317 12.0465L3.1665 12.3332V17.3332H0.666504V13.5832C0.66634 12.8645 0.931528 12.171 1.4112 11.6358C1.89087 11.1007 2.55125 10.7614 3.26567 10.6832L3.40734 10.6715H3.4065ZM14.5932 10.6715C15.3348 10.7167 16.0312 11.0431 16.5403 11.5842C17.0495 12.1253 17.3331 12.8402 17.3332 13.5832V17.3332H14.8332V12.3332C14.8332 11.7557 14.7498 11.1982 14.5932 10.6715ZM3.58317 5.6665C4.1357 5.6665 4.66561 5.886 5.05631 6.2767C5.44701 6.6674 5.6665 7.1973 5.6665 7.74984C5.6665 8.30237 5.44701 8.83228 5.05631 9.22298C4.66561 9.61368 4.1357 9.83317 3.58317 9.83317C3.03064 9.83317 2.50073 9.61368 2.11003 9.22298C1.71933 8.83228 1.49984 8.30237 1.49984 7.74984C1.49984 7.1973 1.71933 6.6674 2.11003 6.2767C2.50073 5.886 3.03064 5.6665 3.58317 5.6665ZM14.4165 5.6665C14.969 5.6665 15.4989 5.886 15.8896 6.2767C16.2803 6.6674 16.4998 7.1973 16.4998 7.74984C16.4998 8.30237 16.2803 8.83228 15.8896 9.22298C15.4989 9.61368 14.969 9.83317 14.4165 9.83317C13.864 9.83317 13.3341 9.61368 12.9434 9.22298C12.5527 8.83228 12.3332 8.30237 12.3332 7.74984C12.3332 7.1973 12.5527 6.6674 12.9434 6.2767C13.3341 5.886 13.864 5.6665 14.4165 5.6665ZM8.99984 0.666504C9.88389 0.666504 10.7317 1.01769 11.3569 1.64281C11.982 2.26794 12.3332 3.11578 12.3332 3.99984C12.3332 4.88389 11.982 5.73174 11.3569 6.35686C10.7317 6.98198 9.88389 7.33317 8.99984 7.33317C8.11578 7.33317 7.26794 6.98198 6.64281 6.35686C6.01769 5.73174 5.6665 4.88389 5.6665 3.99984C5.6665 3.11578 6.01769 2.26794 6.64281 1.64281C7.26794 1.01769 8.11578 0.666504 8.99984 0.666504Z" fill="#21334F"/>
</svg>
