<svg width="100" height="24" viewBox="0 0 100 24" fill="none" xmlns="http://www.w3.org/2000/svg">
<g clip-path="url(#clip0_1233_2383)">
<path d="M0 2.36914V19.3419H4.94463C10.3388 19.3419 13.8038 16.163 13.8038 10.865C13.8038 5.54798 10.3388 2.36914 4.94463 2.36914H0ZM4.94463 5.96426C7.69789 5.96426 9.5334 7.61044 9.5334 10.865C9.5334 14.1006 7.69789 15.7657 4.94463 15.7657H4.1018V5.96426H4.94463ZM26.4463 14.0438C26.465 13.7411 26.465 13.4762 26.465 13.2302C26.465 8.89711 24.2924 6.30485 20.2842 6.30485C16.5757 6.30485 14.0847 9.27555 14.0847 13.022C14.0847 16.7685 16.6319 19.6635 20.7899 19.6635C24.0489 19.6635 25.772 17.6011 26.1466 16.8442L23.5057 14.7817C23.2622 15.1602 22.3632 16.1441 20.8648 16.1441C19.3665 16.1441 18.2801 15.1791 18.1865 14.0438H26.4463ZM20.3591 9.57829C21.5953 9.57829 22.3445 10.4487 22.4007 11.4705H18.3176C18.4113 10.5622 19.0293 9.57829 20.3591 9.57829ZM33.6385 16.1063C31.803 16.1063 30.5481 14.8385 30.5481 12.9653C30.5481 11.2812 31.5969 9.9378 33.5074 9.9378C34.4438 9.9378 35.3241 10.2973 36.0171 10.8839L37.1035 7.45907C36.2232 6.83465 34.987 6.30485 33.3575 6.30485C29.4618 6.30485 26.5399 9.08633 26.5399 13.0031C26.5399 16.901 29.3681 19.6635 33.3763 19.6635C34.9683 19.6635 36.2419 19.1148 37.0847 18.5282L36.0171 15.198C35.474 15.6711 34.575 16.1063 33.6385 16.1063ZM37.1222 15.3872C37.1222 18.1687 39.3323 19.6635 41.8046 19.6635C43.0969 19.6635 44.0147 19.304 44.6515 18.6418L44.8763 19.3419H48.4536V11.4705C48.4536 8.55652 47.3486 6.30485 43.0033 6.30485C40.9056 6.30485 39.2012 6.98603 37.8714 7.87534L39.351 10.6001C40.3437 10.1081 41.4113 9.78643 42.5163 9.78643C43.8274 9.78643 44.4455 10.3919 44.4455 11.1677V11.6408C43.996 11.4326 43.1157 11.1677 42.0106 11.1677C39.0326 11.1677 37.1222 12.8517 37.1222 15.3872ZM41.1303 15.2548C41.1303 14.4222 41.8421 13.8924 42.816 13.8924C43.7712 13.8924 44.5204 14.3844 44.5204 15.2548C44.5204 16.1063 43.7899 16.5604 42.8347 16.5604C41.8982 16.5604 41.1303 16.1063 41.1303 15.2548ZM58.3803 18.6985C58.3803 20.2501 56.9007 20.5907 55.4023 20.5907C53.6979 20.5907 52.2932 19.9852 51.9186 19.8149L50.7574 22.9181C51.8812 23.5046 53.623 23.9966 55.4023 23.9966C59.1483 23.9966 62.3885 22.5207 62.3885 17.8281V6.60759H58.6426V7.61044C58.2867 7.19416 57.088 6.30485 55.2338 6.30485C51.6189 6.30485 49.0717 9.06741 49.0717 12.9653C49.0717 16.9199 51.3755 19.6635 55.0277 19.6635C56.9382 19.6635 58.1181 18.6985 58.3803 18.3769V18.6985ZM58.5115 12.9463C58.5115 14.952 57.3689 16.1063 55.7957 16.1063C54.1662 16.1063 53.0799 14.8196 53.0799 12.9463C53.0799 11.0542 54.1662 9.86212 55.7769 9.86212C57.5001 9.86212 58.5115 11.2434 58.5115 12.9463ZM95.5213 19.3419H99.5294V12.2841C99.5294 9.69182 99.1548 6.30485 95.2029 6.30485C93.6296 6.30485 92.5245 7.17524 92.0375 7.93211V6.60759H88.123V19.3419H92.1312V11.7543C92.1312 10.7325 92.768 9.9378 93.873 9.9378C94.8283 9.9378 95.5213 10.5622 95.5213 11.7543V19.3419Z" fill="#21334F"/>
<path fill-rule="evenodd" clip-rule="evenodd" d="M72.0155 5.66148C72.5587 5.66148 73.1018 5.71825 73.645 5.83178L72.9894 7.64826C72.6898 7.61041 72.3714 7.59149 72.053 7.59149C71.2476 7.59149 70.4797 7.72394 69.7492 7.98885L69.4495 6.05884C70.2549 5.79393 71.1165 5.66148 72.0155 5.66148ZM71.0041 17.7335C70.7232 17.2415 70.4984 16.7307 70.3298 16.2198L72.2215 15.8792C72.3339 16.163 72.465 16.4468 72.6336 16.7117C73.0269 17.4308 73.5326 18.0363 74.1132 18.5282L72.6336 19.7581C71.9968 19.1905 71.4536 18.5093 71.0041 17.7335ZM86.4186 14.5357C86.3624 14.952 86.2875 15.3494 86.1939 15.7467L85.3697 15.3872C85.4634 15.0466 85.557 14.706 85.6132 14.3654L86.4186 14.5357ZM85.2948 17.847C85.0513 18.2822 84.7517 18.6796 84.4145 19.058L83.6279 18.2065C83.9276 17.9227 84.1898 17.6011 84.4333 17.2605L85.2948 17.847ZM82.9724 20.3636C82.7663 20.515 82.5603 20.6664 82.3355 20.7988C81.9422 21.0259 81.5302 21.2151 81.1181 21.3665L80.7435 19.9473C81.2305 19.796 81.7362 19.5878 82.2044 19.304C82.2794 19.2662 82.3355 19.2283 82.4105 19.1905L82.9724 20.3636ZM79.6197 21.7827C78.7582 21.9341 77.8779 21.953 77.0163 21.8206L77.5595 20.1555C78.2525 20.2879 78.9829 20.2879 79.7134 20.1933L79.6197 21.7827ZM76.0798 21.6314L76.7916 19.9852C75.9862 19.7581 75.2183 19.3797 74.544 18.8688L73.2517 20.269C74.0945 20.9123 75.0684 21.3665 76.0798 21.6314ZM67.0334 20.742C66.715 20.4961 66.3966 20.2312 66.1157 19.9284L66.8274 19.3986C67.0709 19.6635 67.3144 19.9095 67.5953 20.1366L67.0334 20.742ZM64.7484 18.1119C64.5236 17.6767 64.3176 17.2037 64.149 16.7307L65.2728 16.4658C65.3852 16.8631 65.5163 17.2605 65.6849 17.6389L64.7484 18.1119ZM63.7557 14.8196C63.7183 14.5547 63.7183 14.3087 63.7183 14.0438C63.7183 13.5707 63.7557 13.1355 63.8306 12.6814L65.2354 13.0599C65.1043 13.5707 65.0481 14.1195 65.0481 14.6682V14.8953L63.7557 14.8196ZM64.224 11.1677C64.5236 10.3351 64.9544 9.55935 65.4788 8.87817L66.6401 10.1648C66.1906 10.7325 65.816 11.3569 65.535 12.057L64.224 11.1677ZM66.1157 8.14022L67.1645 9.59719C67.7639 9.01062 68.4756 8.51865 69.2435 8.17806L68.7004 6.36158C67.7264 6.77786 66.8461 7.38335 66.1157 8.14022ZM81.8486 12.5679C81.5676 13.0599 81.2492 13.514 80.8934 13.9113L79.6572 12.4354C79.8445 12.1895 80.0131 11.9246 80.1629 11.6596C80.575 10.9406 80.8372 10.2027 80.987 9.44582L82.7851 10.127C82.5978 10.9785 82.2981 11.7921 81.8486 12.5679ZM71.4162 0.685086C71.7907 0.514791 72.1653 0.382339 72.5587 0.287731L72.6523 1.17705C72.3152 1.25274 71.978 1.34734 71.6596 1.4798L71.4162 0.685086ZM74.8062 0.00390625C75.2932 0.00390625 75.7989 0.0606712 76.2859 0.15528L75.9487 1.27166C75.5554 1.15813 75.1434 1.10136 74.7313 1.06352L74.8062 0.00390625ZM78.1214 0.760773C78.3649 0.874303 78.5896 0.987833 78.8144 1.12028C79.2077 1.34734 79.5823 1.61225 79.9194 1.89607L78.8893 2.93676C78.5147 2.57725 78.0839 2.25558 77.5969 1.97176C77.5408 1.93392 77.4658 1.89607 77.4096 1.85823L78.1214 0.760773ZM81.0245 2.99353C81.5864 3.67471 82.0359 4.4505 82.3543 5.24521L80.6686 5.62364C80.4064 4.94246 80.0505 4.29912 79.601 3.71255L81.0245 2.99353ZM82.6727 6.17237C82.9349 7.19414 83.0285 8.27267 82.8974 9.33229L81.0619 8.89709C81.1556 8.04561 81.0994 7.19414 80.8934 6.38051L82.6727 6.17237Z" fill="#B8D344"/>
<path fill-rule="evenodd" clip-rule="evenodd" d="M68.0637 11.395C68.3446 10.9219 68.663 10.4678 69.0189 10.0515L70.2551 11.5274C70.0678 11.7734 69.8992 12.0383 69.7306 12.3221C69.3373 13.0222 69.0564 13.7791 68.9253 14.536L67.1272 13.8359C67.3145 13.0033 67.6142 12.1708 68.0637 11.395ZM78.9082 6.24829C79.1891 6.74025 79.3951 7.23221 79.5824 7.76202L77.6907 8.10261C77.5784 7.81878 77.4285 7.53496 77.2787 7.25113C76.8666 6.55103 76.3609 5.94554 75.7803 5.43465L77.2787 4.22367C77.8968 4.79132 78.4586 5.4725 78.9082 6.24829ZM63.4937 9.42712C63.5311 9.02977 63.606 8.63241 63.7184 8.23506L64.5425 8.59457C64.4301 8.91624 64.3552 9.25683 64.299 9.61634L63.4937 9.42712ZM64.6174 6.11583C64.8609 5.69956 65.1606 5.28328 65.479 4.90485L66.2656 5.75632C65.9847 6.05907 65.7038 6.38074 65.479 6.70241L64.6174 6.11583ZM66.9212 3.59925C67.1272 3.44788 67.352 3.31543 67.5767 3.18298C67.97 2.95592 68.3634 2.74778 68.7754 2.59641L69.1687 4.01553C68.663 4.1669 68.1761 4.37504 67.6891 4.65887C67.6329 4.69671 67.558 4.73455 67.5018 4.7724L66.9212 3.59925ZM70.2925 2.18013C71.1541 2.02876 72.0344 2.00983 72.8959 2.14229L72.3528 3.80739C71.6411 3.69386 70.9106 3.67494 70.1989 3.78847L70.2925 2.18013ZM73.8324 2.3315L73.1207 3.97769C73.9261 4.20475 74.6753 4.58318 75.3683 5.09406L76.6606 3.69386C75.799 3.06945 74.8438 2.59641 73.8324 2.3315ZM77.8968 18.3014C77.3349 18.3014 76.7917 18.2446 76.2673 18.15L76.9228 16.3146C77.2225 16.3525 77.5409 16.3903 77.8406 16.3903C78.6647 16.3903 79.4326 16.2389 80.163 15.9929L80.444 17.904C79.6386 18.1689 78.7958 18.3014 77.8968 18.3014ZM82.8788 3.23974C83.1973 3.48572 83.4969 3.75063 83.7779 4.03445L83.0661 4.58318C82.8414 4.31828 82.5792 4.07229 82.317 3.84523L82.8788 3.23974ZM85.1451 5.86985C85.3886 6.30505 85.5946 6.75917 85.7632 7.23221L84.6394 7.49712C84.5271 7.09976 84.3772 6.70241 84.2087 6.32397L85.1451 5.86985ZM86.1565 9.16222C86.1753 9.4082 86.194 9.67311 86.194 9.93801C86.194 10.3921 86.1565 10.8462 86.0816 11.2814L84.6769 10.903C84.7893 10.3921 84.8642 9.86232 84.8642 9.29467C84.8642 9.21899 84.8642 9.1433 84.8455 9.06761L86.1565 9.16222ZM85.6883 12.8141C85.3886 13.6467 84.9578 14.4224 84.4334 15.1036L83.2534 13.798C83.7217 13.2304 84.0963 12.606 84.3585 11.9248L85.6883 12.8141ZM83.7779 15.8226L82.729 14.3846C82.1297 14.9712 81.4367 15.4442 80.65 15.7848L81.2119 17.6202C82.1859 17.185 83.0474 16.5795 83.7779 15.8226ZM78.4961 23.2967C78.1215 23.4481 77.7469 23.5805 77.3536 23.6941L77.2412 22.7858C77.5784 22.7291 77.9155 22.6155 78.2526 22.502L78.4961 23.2967ZM75.106 23.959C74.6003 23.959 74.1134 23.9022 73.6264 23.8076L73.9635 22.6912C74.3569 22.8047 74.7689 22.8804 75.1622 22.9183L75.106 23.959ZM71.7722 23.2021C71.5474 23.0886 71.3226 22.975 71.0979 22.8426C70.7046 22.6155 70.33 22.3506 69.9928 22.0668L71.0042 21.0261C71.3976 21.3856 71.8284 21.7262 72.2966 21.9911C72.3715 22.029 72.4277 22.0668 72.5026 22.1046L71.7722 23.2021ZM68.8878 20.9693C68.3072 20.2882 67.8764 19.5313 67.5393 18.7177L69.2437 18.3392C69.4871 19.0204 69.843 19.6637 70.3112 20.2503L68.8878 20.9693ZM67.2396 17.7905C66.9586 16.7687 66.8837 15.7091 66.9961 14.6306L68.8316 15.0658C68.738 15.9173 68.8129 16.7687 69.0189 17.6013L67.2396 17.7905Z" fill="#34A853"/>
</g>
<defs>
<clipPath id="clip0_1233_2383">
<rect width="99.5294" height="24" fill="white"/>
</clipPath>
</defs>
</svg>
